# This file uses centimeters as units for non-parametric coordinates.

mtllib ducky_1.mtl
g default
v 0.378794 -0.072300 -0.147599
v -0.000508 0.083854 0.122484
v 0.323923 0.058159 0.204191
v 0.562722 -0.218292 0.151062
v 0.585165 -0.257296 -0.452666
v -0.000508 -0.018904 -0.274955
v -0.379810 -0.072300 -0.147599
v -0.563738 -0.218293 0.151067
v -0.586181 -0.257296 -0.452666
v -0.324939 0.058159 0.204191
v 0.256216 0.231898 0.338202
v 0.181294 0.258864 0.338202
v 0.350896 0.159103 0.338202
v 0.454999 0.023972 0.338202
v 0.523507 -0.044357 0.338202
v 0.540445 -0.243189 0.338202
v 0.532182 -0.259753 0.338202
v 0.537432 -0.259753 0.238510
v 0.536074 -0.259753 0.124710
v 0.582291 -0.259753 -0.438446
v 0.576209 -0.259753 -0.470440
v 0.554296 -0.220612 -0.570918
v 0.533103 -0.259753 -0.570918
v 0.499306 -0.161082 -0.570918
v 0.362731 -0.022803 -0.570918
v 0.212414 -0.007347 -0.570918
v -0.000508 0.024342 -0.570918
v -0.213430 -0.007347 -0.570918
v -0.363748 -0.022803 -0.570918
v -0.500322 -0.161082 -0.570918
v -0.555313 -0.220612 -0.570918
v -0.534119 -0.259753 -0.570918
v -0.577226 -0.259753 -0.470440
v -0.583307 -0.259753 -0.438446
v -0.537091 -0.259753 0.124714
v -0.538449 -0.259753 0.238512
v -0.541461 -0.243189 0.338202
v -0.533198 -0.259753 0.338202
v -0.524524 -0.044358 0.338202
v -0.456016 0.023972 0.338202
v -0.351913 0.159103 0.338202
v -0.257233 0.231898 0.338202
v -0.182310 0.258864 0.338202
v -0.000508 0.300412 0.338202
vt 0.437500 0.375000
vt 0.562500 0.375000
vt 0.500000 0.375000
vt 0.500000 0.375000
vt 0.437500 0.375000
vt 0.562500 0.375000
vt 0.375000 0.375000
vt 0.250000 0.250000
vt 0.750000 0.250000
vt 0.625000 0.375000
vt 0.375000 0.437500
vt 0.625000 0.437500
vt 0.812500 0.250000
vt 0.187500 0.250000
vt 0.549696 0.375000
vt 0.562500 0.375000
vt 0.562500 0.375000
vt 0.591460 0.375000
vt 0.591460 0.375000
vt 0.606193 0.375000
vt 0.606193 0.375000
vt 0.625000 0.375000
vt 0.625000 0.375000
vt 0.625000 0.349054
vt 0.724054 0.250000
vt 0.736167 0.236167
vt 0.723104 0.242318
vt 0.736167 0.236167
vt 0.750000 0.229931
vt 0.750001 0.229931
vt 0.810796 0.248296
vt 0.829999 0.236503
vt 0.815248 0.247252
vt 0.827781 0.250000
vt 0.625000 0.452781
vt 0.601665 0.437500
vt 0.601665 0.437500
vt 0.562500 0.417550
vt 0.562500 0.417550
vt 0.537412 0.412412
vt 0.537412 0.412412
vt 0.500000 0.402652
vt 0.500000 0.402652
vt 0.462588 0.412412
vt 0.462588 0.412412
vt 0.437500 0.417550
vt 0.437500 0.417550
vt 0.398335 0.437500
vt 0.398335 0.437500
vt 0.375000 0.452781
vt 0.172219 0.250000
vt 0.184752 0.247252
vt 0.170001 0.236503
vt 0.189204 0.248296
vt 0.250000 0.229931
vt 0.250000 0.229931
vt 0.263833 0.236167
vt 0.276895 0.242318
vt 0.263834 0.236166
vt 0.275946 0.250000
vt 0.375000 0.349054
vt 0.375000 0.375000
vt 0.375000 0.375000
vt 0.393807 0.375000
vt 0.393807 0.375000
vt 0.408540 0.375000
vt 0.408540 0.375000
vt 0.437500 0.375000
vt 0.437500 0.375000
vt 0.450304 0.375000
vt 0.450304 0.375000
vt 0.500000 0.375000
vt 0.500000 0.375000
vt 0.549696 0.375000
vt 0.427476 0.719270
vt 0.420265 0.737810
vt 0.423045 0.750000
vt 0.562991 0.750000
vt 0.565771 0.737810
vt 0.558560 0.719270
vt 0.540650 0.676205
vt 0.520939 0.671391
vt 0.493018 0.661522
vt 0.465097 0.671391
vt 0.445386 0.676205
vt 0.416595 0.786429
vt 0.422655 0.941293
vt 0.422477 0.972586
vt 0.423165 1.000000
vt 0.562871 1.000000
vt 0.563559 0.972586
vt 0.563381 0.941292
vt 0.569442 0.786429
vt 0.568644 0.777631
vt 0.562991 0.750000
vt 0.423045 0.750000
vt 0.417392 0.777631
vt 0.493018 0.174457
vt 0.516858 0.161518
vt 0.526683 0.153119
vt 0.539099 0.130448
vt 0.552750 0.088363
vt 0.561733 0.067083
vt 0.563954 0.005159
vt 0.562871 0.000000
vt 0.423165 0.000000
vt 0.422082 0.005159
vt 0.424303 0.067082
vt 0.433286 0.088363
vt 0.446938 0.130448
vt 0.459353 0.153119
vt 0.469178 0.161518
vn 0.480758 0.873140 -0.080612
vn 0.000000 0.903927 -0.427686
vn 0.432269 0.803725 -0.408864
vn 0.816079 0.566464 -0.114605
vn 0.690842 0.722620 0.023632
vn 0.000000 0.998243 -0.059255
vn -0.480760 0.873139 -0.080611
vn -0.816078 0.566465 -0.114605
vn -0.690842 0.722620 0.023633
vn -0.432271 0.803724 -0.408863
vn 0.321396 0.653700 -0.685114
vn 0.206345 0.667506 -0.715442
vn 0.582862 0.588331 -0.560481
vn 0.650498 0.582213 -0.487729
vn 0.754395 0.552103 -0.355066
vn 0.991392 0.042855 0.123716
vn 0.893845 -0.445898 0.047080
vn 0.886997 -0.460182 0.038333
vn 0.821954 -0.566390 0.059951
vn 0.819347 -0.569341 0.067241
vn 0.000116 -1.000000 -0.000022
vn 0.401922 -0.912482 -0.076396
vn 0.000034 -1.000000 -0.000006
vn 0.822762 -0.445499 -0.352979
vn 0.886637 0.453470 -0.090772
vn 0.822761 -0.445501 -0.352978
vn 0.713230 0.699076 0.050941
vn 0.492494 0.866386 0.082615
vn 0.111435 0.986658 0.118696
vn 0.000000 0.989493 0.144583
vn -0.111435 0.986658 0.118697
vn -0.492494 0.866386 0.082615
vn -0.713231 0.699076 0.050941
vn -0.886636 0.453473 -0.090771
vn -0.822763 -0.445498 -0.352978
vn -0.822760 -0.445504 -0.352978
vn -0.000032 -1.000000 -0.000006
vn -0.401915 -0.912485 -0.076395
vn -0.000133 -1.000000 -0.000026
vn -0.819346 -0.569342 0.067240
vn -0.821951 -0.566394 0.059950
vn -0.886997 -0.460182 0.038334
vn -0.991392 0.042856 0.123717
vn -0.893843 -0.445901 0.047081
vn -0.754393 0.552100 -0.355073
vn -0.650500 0.582210 -0.487731
vn -0.582862 0.588331 -0.560481
vn -0.321396 0.653700 -0.685114
vn -0.206345 0.667506 -0.715442
vn 0.000000 0.705732 -0.708479
vn 0.000000 0.000000 -1.000000
vn 0.000000 0.000000 -1.000000
vn -0.000000 0.000000 -1.000000
vn 0.000000 0.000000 -1.000000
vn -0.000000 0.000000 -1.000000
vn -0.000000 0.000000 -1.000000
vn 0.000000 0.000000 -1.000000
vn -0.000000 0.000000 -1.000000
vn 0.000000 0.000000 -1.000000
vn 0.000002 0.000000 -1.000000
vn 0.000000 0.000000 -1.000000
vn 0.000000 -1.000000 -0.000000
vn 0.000000 -1.000000 -0.000000
vn 0.000000 -1.000000 0.000000
vn 0.000000 -1.000000 -0.000000
vn 0.000000 -1.000000 0.000000
vn -0.000000 -1.000000 -0.000000
vn 0.000000 -1.000000 0.000000
vn 0.000000 -1.000000 0.000001
vn 0.000000 0.000000 1.000000
vn -0.000000 -0.000000 1.000000
vn -0.000000 -0.000000 1.000000
vn -0.000000 -0.000000 1.000000
vn 0.000000 -0.000000 1.000000
vn -0.000000 -0.000000 1.000000
vn -0.000000 -0.000000 1.000000
vn -0.000000 -0.000000 1.000000
vn -0.000000 -0.000000 1.000000
vn 0.000000 -0.000000 1.000000
vn -0.000000 -0.000000 1.000000
vn 0.000001 0.000000 1.000000
vn -0.000000 -0.000000 1.000000
vn -0.000003 -0.000001 1.000000
vn -0.000001 0.000000 1.000000
s 1
g polySurface16
usemtl initialShadingGroup
f 1/6/1 2/3/2 3/2/3
f 1/6/1 3/2/3 4/10/4
f 4/10/4 5/12/5 1/6/1
f 6/4/6 2/3/2 1/6/1
f 6/4/6 7/5/7 2/3/2
f 8/7/8 7/5/7 9/11/9
f 8/7/8 10/1/10 7/5/7
f 2/3/2 7/5/7 10/1/10
f 11/16/11 3/2/3 12/15/12
f 12/15/12 3/2/3 2/3/2
f 13/18/13 3/2/3 11/17/11
f 14/20/14 3/2/3 13/19/13
f 4/10/4 3/2/3 15/22/15
f 15/22/15 3/2/3 14/21/14
f 16/24/16 4/10/4 15/23/15
f 17/27/17 18/26/18 16/25/16
f 16/25/16 18/26/18 4/9/4
f 19/29/19 4/9/4 18/28/18
f 5/13/5 4/9/4 20/31/20
f 20/31/20 4/9/4 19/30/19
s 4
f 21//21 5//22 20//23
s 1
usemtl initialShadingGroup
f 5/13/5 21/33/24 22/34/25
f 22/34/25 21/33/24 23/32/26
f 24/36/27 5/12/5 22/35/25
f 1/6/1 5/12/5 25/38/28
f 25/38/28 5/12/5 24/37/27
f 6/4/6 1/6/1 26/40/29
f 26/40/29 1/6/1 25/39/28
f 27/42/30 6/4/6 26/41/29
f 28/44/31 6/4/6 27/43/30
f 29/46/32 7/5/7 28/45/31
f 28/45/31 7/5/7 6/4/6
f 30/48/33 9/11/9 29/47/32
f 29/47/32 9/11/9 7/5/7
f 31/50/34 9/11/9 30/49/33
f 32/53/35 33/52/36 31/51/34
f 31/51/34 33/52/36 9/14/9
s 4
f 34//37 9//38 33//39
s 1
usemtl initialShadingGroup
f 9/14/9 34/54/40 8/8/8
f 35/55/41 8/8/8 34/54/40
f 36/57/42 8/8/8 35/56/41
f 8/8/8 36/59/42 37/60/43
f 37/60/43 36/59/42 38/58/44
f 39/62/45 8/7/8 37/61/43
f 40/64/46 10/1/10 39/63/45
f 39/63/45 10/1/10 8/7/8
f 41/66/47 10/1/10 40/65/46
f 42/68/48 10/1/10 41/67/47
f 2/3/2 10/1/10 43/70/49
f 43/70/49 10/1/10 42/69/48
f 44/72/50 2/3/2 43/71/49
f 12/74/12 2/3/2 44/73/50
s 9
f 22/79/51 23/78/52 24/80/53
f 23/78/52 32/77/54 24/80/53
f 24/80/53 32/77/54 25/81/55
f 25/81/55 32/77/54 26/82/56
f 26/82/56 32/77/54 27/83/57
f 27/83/57 32/77/54 28/84/58
f 28/84/58 32/77/54 29/85/59
f 29/85/59 32/77/54 30/75/60
f 32/77/54 31/76/61 30/75/60
s 4
f 17/90/62 38/89/63 18/91/64
f 38/89/63 36/88/65 18/91/64
f 18/91/64 36/88/65 19/92/66
f 36/88/65 35/87/67 19/92/66
f 19/92/66 35/87/67 20/93/23
f 35/87/67 34/86/37 20/93/23
f 20/93/23 34/86/37 21/94/21
f 21/94/21 34/86/37 23/95/68
f 34/86/37 33/97/39 23/95/68
f 33/97/39 32/96/69 23/95/68
s 11
f 38/106/70 17/105/71 37/107/72
f 37/107/72 17/105/71 39/108/73
f 39/108/73 17/105/71 40/109/74
f 40/109/74 17/105/71 41/110/75
f 41/110/75 17/105/71 42/111/76
f 42/111/76 17/105/71 43/112/77
f 43/112/77 17/105/71 44/98/78
f 44/98/78 17/105/71 12/99/79
f 12/99/79 17/105/71 11/100/80
f 11/100/80 17/105/71 13/101/81
f 13/101/81 17/105/71 14/102/82
f 17/105/71 16/104/83 14/102/82
f 16/104/83 15/103/84 14/102/82
