# This file uses centimeters as units for non-parametric coordinates.

mtllib ducky_2.mtl
g default
v -0.000508 0.277749 -1.729081
v 0.285488 0.211989 -1.469232
v -0.000508 -0.150673 -1.401242
v -0.286504 0.211989 -1.469232
v -0.000508 0.078842 -0.951040
v 0.202356 -0.179593 -1.255051
v -0.203372 -0.179593 -1.255051
v -0.459926 -0.107254 -0.943461
v -0.356217 0.000403 -0.776526
v 0.355200 0.000403 -0.776526
v 0.458909 -0.107254 -0.943461
v 0.000604 -0.259135 -1.303056
v -0.000508 -0.249505 -1.312375
v 0.154894 -0.259121 -1.211660
v -0.155910 -0.259121 -1.211660
v -0.001621 -0.259135 -1.303056
v -0.198397 -0.259118 -1.197192
v -0.310013 -0.259090 -1.022279
v -0.402867 -0.259068 -0.884853
v -0.534202 -0.259020 -0.578785
v -0.555103 -0.220364 -0.578853
v -0.499664 -0.160345 -0.578958
v -0.363704 -0.022669 -0.579201
v -0.214276 -0.007301 -0.579228
v -0.001228 0.024415 -0.579284
v -0.000508 0.024645 -0.580124
v 0.213260 -0.007301 -0.579228
v 0.000212 0.024415 -0.579284
v 0.362688 -0.022669 -0.579201
v 0.498648 -0.160345 -0.578958
v 0.554087 -0.220364 -0.578853
v 0.401850 -0.259068 -0.884853
v 0.533185 -0.259020 -0.578785
v 0.308996 -0.259090 -1.022279
v 0.197381 -0.259118 -1.197192
vt 0.437500 0.437500
vt 0.500000 0.500000
vt 0.437500 0.500000
vt 0.500000 0.437500
vt 0.562500 0.500000
vt 0.562500 0.437500
vt 0.500000 0.562500
vt 0.437500 0.562500
vt 0.562500 0.562500
vt 0.375000 0.500000
vt 0.625000 0.500000
vt 0.125000 0.250000
vt 0.875000 0.250000
vt 0.547878 0.577122
vt 0.500000 0.579247
vt 0.500343 0.580852
vt 0.499657 0.580852
vt 0.500000 0.579247
vt 0.452122 0.577122
vt 0.452122 0.577122
vt 0.437500 0.576933
vt 0.437500 0.576933
vt 0.400299 0.562500
vt 0.400300 0.562500
vt 0.375000 0.546082
vt 0.125000 0.203918
vt 0.172116 0.250000
vt 0.169935 0.236677
vt 0.375000 0.452884
vt 0.398514 0.437500
vt 0.398514 0.437500
vt 0.437500 0.417666
vt 0.437500 0.417666
vt 0.462440 0.412560
vt 0.462440 0.412560
vt 0.500000 0.402845
vt 0.499874 0.402800
vt 0.500126 0.402800
vt 0.500000 0.402845
vt 0.537560 0.412560
vt 0.537560 0.412560
vt 0.562500 0.417666
vt 0.562500 0.417666
vt 0.601486 0.437500
vt 0.601486 0.437500
vt 0.625000 0.452884
vt 0.830065 0.236677
vt 0.827884 0.250000
vt 0.875000 0.203918
vt 0.625000 0.546082
vt 0.599700 0.562500
vt 0.599701 0.562499
vt 0.562500 0.576933
vt 0.562500 0.576933
vt 0.547878 0.577122
vt 0.499881 0.250000
vt 0.499979 0.250155
vt 0.500119 0.250000
vt 0.499881 0.250000
vt 0.500119 0.250000
vt 0.535736 0.222026
vt 0.560653 0.208470
vt 0.551773 0.087035
vt 0.544779 0.034096
vt 0.533396 0.000000
vt 0.403699 0.000000
vt 0.410002 0.034096
vt 0.418965 0.087035
vt 0.440224 0.208470
vt 0.464855 0.222026
vt 0.500184 0.750000
vt 0.499510 0.746324
vt 0.499816 0.750000
vt 0.533194 0.786542
vt 0.526097 0.781548
vt 0.500184 0.750000
vt 0.499816 0.750000
vt 0.474569 0.781548
vt 0.467578 0.786542
vt 0.449710 0.846917
vt 0.434816 0.894353
vt 0.403699 1.000000
vt 0.533396 1.000000
vt 0.544838 0.894353
vt 0.545858 0.846917
vn -0.000000 0.753267 -0.657715
vn 0.603617 0.751801 -0.265408
vn -0.000000 -0.592489 -0.805579
vn -0.603617 0.751801 -0.265408
vn -0.000000 0.966780 0.255610
vn 0.648820 -0.475891 -0.593769
vn -0.648820 -0.475891 -0.593769
vn -0.961075 0.189021 -0.201507
vn -0.404311 0.898192 0.172581
vn 0.404311 0.898192 0.172580
vn 0.961075 0.189021 -0.201507
vn 0.387476 -0.608899 -0.692174
vn 0.399459 -0.613236 -0.681450
vn 0.000000 -0.668629 -0.743596
vn -0.387476 -0.608899 -0.692174
vn -0.399461 -0.613233 -0.681452
vn -0.713676 -0.440751 -0.544431
vn -0.734570 -0.464070 -0.495022
vn -0.798262 -0.453184 -0.396739
vn -0.822762 -0.445498 -0.352979
vn -0.957416 0.225838 -0.179865
vn -0.724479 0.688452 0.034130
vn -0.486183 0.869881 0.083263
vn -0.140091 0.980324 0.139064
vn -0.000000 0.989493 0.144583
vn -0.145691 0.978935 0.143037
vn 0.140090 0.980324 0.139064
vn 0.145691 0.978935 0.143043
vn 0.486183 0.869881 0.083263
vn 0.724478 0.688452 0.034130
vn 0.957416 0.225838 -0.179865
vn 0.798262 -0.453184 -0.396739
vn 0.822761 -0.445500 -0.352978
vn 0.734570 -0.464070 -0.495022
vn 0.713676 -0.440751 -0.544431
vn 0.000000 0.964539 0.263939
vn 0.000000 0.964539 0.263939
vn 0.000000 0.964539 0.263939
vn 0.000002 0.001759 0.999999
vn 0.000000 0.001760 0.999999
vn 0.000000 0.001760 0.999999
vn -0.000000 0.001760 0.999999
vn 0.000000 0.001760 0.999998
vn -0.000000 0.001760 0.999999
vn 0.000000 0.001760 0.999998
vn -0.000000 0.001760 0.999999
vn -0.000000 0.001760 0.999998
vn 0.000000 0.001760 0.999999
vn -0.000003 0.001758 0.999998
vn 0.000000 0.001759 0.999999
vn 0.000000 -1.000000 0.000160
vn 0.000000 -1.000000 0.000160
vn 0.000000 -1.000000 0.000160
vn 0.000000 -1.000000 0.000159
vn 0.000000 -1.000000 0.000160
vn 0.000000 -1.000000 0.000159
vn 0.000000 -1.000000 0.000160
vn 0.000000 -1.000000 0.000160
vn 0.000000 -1.000000 0.000159
vn 0.000000 -1.000000 0.000160
vn 0.000000 -1.000000 0.000160
vn 0.000000 -1.000000 0.000183
s 1
g polySurface17
usemtl initialShadingGroup
f 1/2/1 2/5/2 3/7/3
f 1/2/1 3/7/3 4/3/4
f 1/2/1 4/3/4 5/4/5
f 1/2/1 5/4/5 2/5/2
f 3/7/3 2/5/2 6/9/6
f 4/3/4 3/7/3 7/8/7
f 4/3/4 7/8/7 8/10/8
f 8/10/8 9/1/9 4/3/4
f 5/4/5 4/3/4 9/1/9
f 2/5/2 5/4/5 10/6/10
f 2/5/2 10/6/10 11/11/11
f 11/11/11 6/9/6 2/5/2
f 6/9/6 14/14/12 3/7/3
f 12/16/13 13/15/14 14/14/12
f 13/15/14 3/7/3 14/14/12
f 7/8/7 3/7/3 15/19/15
f 16/17/16 15/19/15 13/18/14
f 15/19/15 3/7/3 13/18/14
f 17/21/17 7/8/7 15/20/15
f 18/23/18 7/8/7 17/22/17
f 19/25/19 8/10/8 18/24/18
f 18/24/18 8/10/8 7/8/7
f 20/28/20 21/27/21 19/26/19
f 19/26/19 21/27/21 8/12/8
f 22/30/22 9/1/9 21/29/21
f 21/29/21 9/1/9 8/10/8
f 23/32/23 9/1/9 22/31/22
f 24/34/24 9/1/9 23/33/23
f 9/1/9 24/35/24 5/4/5
f 5/4/5 24/35/24 26/36/25
f 25/37/26 26/36/25 24/35/24
f 10/6/10 5/4/5 27/40/27
f 5/4/5 26/39/25 27/40/27
f 27/40/27 26/39/25 28/38/28
f 29/42/29 10/6/10 27/41/27
f 30/44/30 10/6/10 29/43/29
f 11/11/11 10/6/10 31/46/31
f 31/46/31 10/6/10 30/45/30
f 11/13/11 31/48/31 32/49/32
f 32/49/32 31/48/31 33/47/33
f 6/9/6 11/11/11 34/51/34
f 34/51/34 11/11/11 32/50/32
f 35/53/35 6/9/6 34/52/34
f 14/55/12 6/9/6 35/54/35
s off
f 28/58/36 26/57/37 25/56/38
s 5
f 21/67/39 20/66/40 22/68/41
f 20/66/40 33/65/42 22/68/41
f 22/68/41 33/65/42 23/69/43
f 23/69/43 33/65/42 24/70/44
f 24/70/44 33/65/42 25/59/45
f 25/59/45 33/65/42 28/60/46
f 28/60/46 33/65/42 27/61/47
f 27/61/47 33/65/42 29/62/48
f 29/62/48 33/65/42 30/63/49
f 33/65/42 31/64/50 30/63/49
s 1
f 16/73/16 13/72/14 12/71/13
s 6
f 33/83/51 20/82/52 32/84/53
f 20/82/52 19/81/54 32/84/53
f 32/84/53 19/81/54 34/85/55
f 19/81/54 18/80/56 34/85/55
f 34/85/55 18/80/56 35/74/57
f 18/80/56 17/79/58 35/74/57
f 17/79/58 15/78/59 35/74/57
f 35/74/57 15/78/59 14/75/60
f 15/78/59 16/77/61 14/75/60
f 16/77/61 12/76/62 14/75/60
